<svg width="20" height="20" viewBox="0 0 20 20" fill="none" xmlns="http://www.w3.org/2000/svg">
<path d="M15 6V6C15 3.23858 12.7614 1 10 1V1C7.23858 1 5 3.23858 5 6V6M7.8691 19H12.1309C13.6962 19 14.4788 19 15.1422 18.7898C16.2527 18.4379 17.1836 17.669 17.7389 16.6449C18.0705 16.0332 18.2183 15.2646 18.5139 13.7275V13.7275C18.931 11.5585 19.1396 10.4741 18.9613 9.60027C18.6619 8.13321 17.6525 6.91114 16.2684 6.34011C15.444 6 14.3396 6 12.1309 6H7.8691C5.66039 6 4.55604 6 3.73164 6.34011C2.34752 6.91114 1.33807 8.13321 1.0387 9.60027C0.860396 10.4741 1.06895 11.5585 1.48606 13.7275V13.7275C1.78166 15.2646 1.92945 16.0332 2.26114 16.6449C2.81643 17.669 3.74725 18.4379 4.85783 18.7898C5.5212 19 6.30383 19 7.8691 19Z" stroke="#424242" stroke-width="1.5" stroke-linecap="round" stroke-linejoin="round"/>
</svg>
